<svg role="img" viewBox="0 0 24 24" xmlns="http://www.w3.org/2000/svg"><title>Hugging Face</title><path fill="#FFD21E" d="M12 0C5.373 0 0 5.373 0 12s5.373 12 12 12 12-5.373 12-12S18.627 0 12 0zm0 21.5C6.753 21.5 2.5 17.247 2.5 12S6.753 2.5 12 2.5 21.5 6.753 21.5 12 17.247 21.5 12 21.5zM8.5 9c-.828 0-1.5.672-1.5 1.5S7.672 12 8.5 12 10 11.328 10 10.5 9.328 9 8.5 9zm7 0c-.828 0-1.5.672-1.5 1.5s.672 1.5 1.5 1.5 1.5-.672 1.5-1.5S16.328 9 15.5 9zm-3.5 7.5c-2.33 0-4.318-1.46-5.122-3.5h10.244c-.804 2.04-2.792 3.5-5.122 3.5z"/></svg>